ffmpeg started on 2025-05-12 at 17:50:54
Report written to "D:\Convert\FFMetrics\reports\ssim_report-6.txt"
Log level: 32
Command line:
ffmpeg -hide_banner -nostdin -i "G:\\\xc0\xed\xe8\xec\xe5\\\xce\xed\xe3\xee\xe8\xed\xe3\xe8\\!_35_\xcb\xe5\xf2\xee_2024\\DreamCast\\\xce\xef\xe5\xf0\xe0\xf6\xe8\xff - \xd1\xe5\xec\xe5\xe9\xea\xe0 \xa8\xe4\xe7\xe0\xea\xf3\xf0\xe0\\[DC] Yozakura-san Chi no Daisakusen - 22_Telegram_HEVC.mkv" -i "G:\\\xc0\xed\xe8\xec\xe5\\\xce\xed\xe3\xee\xe8\xed\xe3\xe8\\!_35_\xcb\xe5\xf2\xee_2024\\DreamCast\\\xce\xef\xe5\xf0\xe0\xf6\xe8\xff - \xd1\xe5\xec\xe5\xe9\xea\xe0 \xa8\xe4\xe7\xe0\xea\xf3\xf0\xe0\\[DC] Yozakura-san Chi no Daisakusen - 22_Telegram.mp4" -lavfi "[0:v]settb=AVTB,setpts=PTS-STARTPTS,format=pix_fmts=yuv420p10,fps=24000/1001,scale=1920:1080:flags=bicubic[main];[1:v]settb=AVTB,setpts=PTS-STARTPTS,format=pix_fmts=yuv420p,fps=24000/1001,scale=1920:1080:flags=bicubic[ref];[main][ref]ssim=eof_action=endall:stats_file='D\\:/Convert/FFMetrics/logs/ssim_logfile-6.txt'" -f null -
Input #0, matroska,webm, from 'G:\Аниме\Онгоинги\!_35_Лето_2024\DreamCast\Операция - Семейка Ёдзакура\[DC] Yozakura-san Chi no Daisakusen - 22_Telegram_HEVC.mkv':
  Metadata:
    COMPATIBLE_BRANDS: isomiso2avc1mp41
    MAJOR_BRAND     : isom
    MINOR_VERSION   : 512
    ENCODER         : Lavf61.7.100
  Duration: 00:24:09.69, start: -0.021000, bitrate: 1503 kb/s
  Stream #0:0: Video: hevc (Main 10), yuv420p10le(tv, bt709, progressive), 1920x1080 [SAR 1:1 DAR 16:9], 23.98 fps, 23.98 tbr, 1k tbn (default)
      Metadata:
        HANDLER_NAME    : VideoHandler
        VENDOR_ID       : [0][0][0][0]
        ENCODER         : Lavc61.19.100 libx265
        BPS             : 1305809
        DURATION        : 00:24:09.572708333
        NUMBER_OF_FRAMES: 34755
        NUMBER_OF_BYTES : 236608157
        _STATISTICS_WRITING_APP: mkvpropedit v66.0.0 ('Josie') 64-bit
        _STATISTICS_WRITING_DATE_UTC: 2025-05-08 17:07:45
        _STATISTICS_TAGS: BPS DURATION NUMBER_OF_FRAMES NUMBER_OF_BYTES
  Stream #0:1: Audio: aac (LC), 48000 Hz, stereo, fltp (default)
      Metadata:
        HANDLER_NAME    : SoundHandler
        VENDOR_ID       : [0][0][0][0]
        ENCODER         : Lavc61.19.100 aac
        BPS             : 193678
        DURATION        : 00:24:09.685000000
        NUMBER_OF_FRAMES: 67955
        NUMBER_OF_BYTES : 35096569
        _STATISTICS_WRITING_APP: mkvpropedit v66.0.0 ('Josie') 64-bit
        _STATISTICS_WRITING_DATE_UTC: 2025-05-08 17:07:45
        _STATISTICS_TAGS: BPS DURATION NUMBER_OF_FRAMES NUMBER_OF_BYTES
Input #1, mov,mp4,m4a,3gp,3g2,mj2, from 'G:\Аниме\Онгоинги\!_35_Лето_2024\DreamCast\Операция - Семейка Ёдзакура\[DC] Yozakura-san Chi no Daisakusen - 22_Telegram.mp4':
  Metadata:
    major_brand     : isom
    minor_version   : 512
    compatible_brands: isomiso2avc1mp41
    encoder         : Lavf61.1.100
  Duration: 00:24:09.64, start: 0.000000, bitrate: 3665 kb/s
  Stream #1:0[0x1](und): Video: h264 (High) (avc1 / 0x31637661), yuv420p(tv, bt709, progressive), 1920x1080 [SAR 1:1 DAR 16:9], 3517 kb/s, 23.98 fps, 23.98 tbr, 24k tbn (default)
      Metadata:
        handler_name    : VideoHandler
        vendor_id       : [0][0][0][0]
        encoder         : Lavc61.3.100 h264_qsv
  Stream #1:1[0x2](und): Audio: aac (HE-AACv2) (mp4a / 0x6134706D), 48000 Hz, stereo, fltp, 144 kb/s (default)
      Metadata:
        handler_name    : SoundHandler
        vendor_id       : [0][0][0][0]
Stream mapping:
  Stream #0:0 (hevc) -> settb:default
  Stream #1:0 (h264) -> settb:default
  ssim:default -> Stream #0:0 (wrapped_avframe)
  Stream #0:1 -> #0:1 (aac (native) -> pcm_s16le (native))
Output #0, null, to 'pipe:':
  Metadata:
    COMPATIBLE_BRANDS: isomiso2avc1mp41
    MAJOR_BRAND     : isom
    MINOR_VERSION   : 512
    encoder         : Lavf61.7.100
  Stream #0:0: Video: wrapped_avframe, yuv420p10le(tv, bt709, progressive), 1920x1080 [SAR 1:1 DAR 16:9], q=2-31, 200 kb/s, 23.98 fps, 23.98 tbn
      Metadata:
        encoder         : Lavc61.19.100 wrapped_avframe
  Stream #0:1: Audio: pcm_s16le, 48000 Hz, stereo, s16, 1536 kb/s (default)
      Metadata:
        HANDLER_NAME    : SoundHandler
        VENDOR_ID       : [0][0][0][0]
        _STATISTICS_TAGS: BPS DURATION NUMBER_OF_FRAMES NUMBER_OF_BYTES
        BPS             : 193678
        DURATION        : 00:24:09.685000000
        NUMBER_OF_FRAMES: 67955
        NUMBER_OF_BYTES : 35096569
        _STATISTICS_WRITING_APP: mkvpropedit v66.0.0 ('Josie') 64-bit
        _STATISTICS_WRITING_DATE_UTC: 2025-05-08 17:07:45
        encoder         : Lavc61.19.100 pcm_s16le
frame=  173 fps=0.0 q=-0.0 size=N/A time=00:00:07.21 bitrate=N/A speed=13.8x    frame=  431 fps=417 q=-0.0 size=N/A time=00:00:17.97 bitrate=N/A speed=17.4x    frame=  658 fps=422 q=-0.0 size=N/A time=00:00:27.44 bitrate=N/A speed=17.6x    frame=  921 fps=446 q=-0.0 size=N/A time=00:00:38.41 bitrate=N/A speed=18.6x    frame= 1186 fps=458 q=-0.0 size=N/A time=00:00:49.46 bitrate=N/A speed=19.1x    frame= 1447 fps=467 q=-0.0 size=N/A time=00:01:00.35 bitrate=N/A speed=19.5x    frame= 1712 fps=473 q=-0.0 size=N/A time=00:01:11.40 bitrate=N/A speed=19.7x    frame= 1963 fps=476 q=-0.0 size=N/A time=00:01:21.87 bitrate=N/A speed=19.9x    frame= 2202 fps=474 q=-0.0 size=N/A time=00:01:31.84 bitrate=N/A speed=19.8x    frame= 2389 fps=464 q=-0.0 size=N/A time=00:01:39.64 bitrate=N/A speed=19.3x    frame= 2536 fps=447 q=-0.0 size=N/A time=00:01:45.77 bitrate=N/A speed=18.6x    frame= 2683 fps=434 q=-0.0 size=N/A time=00:01:51.90 bitrate=N/A speed=18.1x    frame= 2811 fps=419 q=-0.0 size=N/A time=00:01:57.24 bitrate=N/A speed=17.5x    frame= 2999 fps=415 q=-0.0 size=N/A time=00:02:05.08 bitrate=N/A speed=17.3x    frame= 3193 fps=413 q=-0.0 size=N/A time=00:02:13.17 bitrate=N/A speed=17.2x    frame= 3413 fps=413 q=-0.0 size=N/A time=00:02:22.35 bitrate=N/A speed=17.2x    frame= 3607 fps=411 q=-0.0 size=N/A time=00:02:30.44 bitrate=N/A speed=17.2x    frame= 3816 fps=411 q=-0.0 size=N/A time=00:02:39.15 bitrate=N/A speed=17.1x    frame= 4030 fps=411 q=-0.0 size=N/A time=00:02:48.08 bitrate=N/A speed=17.2x    frame= 4187 fps=406 q=-0.0 size=N/A time=00:02:54.63 bitrate=N/A speed=16.9x    frame= 4380 fps=405 q=-0.0 size=N/A time=00:03:02.68 bitrate=N/A speed=16.9x    frame= 4567 fps=402 q=-0.0 size=N/A time=00:03:10.48 bitrate=N/A speed=16.8x    frame= 4763 fps=401 q=-0.0 size=N/A time=00:03:18.65 bitrate=N/A speed=16.7x    frame= 4991 fps=403 q=-0.0 size=N/A time=00:03:28.16 bitrate=N/A speed=16.8x    frame= 5161 fps=400 q=-0.0 size=N/A time=00:03:35.25 bitrate=N/A speed=16.7x    frame= 5412 fps=404 q=-0.0 size=N/A time=00:03:45.72 bitrate=N/A speed=16.8x    frame= 5653 fps=406 q=-0.0 size=N/A time=00:03:55.77 bitrate=N/A speed=16.9x    frame= 5916 fps=410 q=-0.0 size=N/A time=00:04:06.74 bitrate=N/A speed=17.1x    frame= 6153 fps=411 q=-0.0 size=N/A time=00:04:16.63 bitrate=N/A speed=17.2x    frame= 6414 fps=415 q=-0.0 size=N/A time=00:04:27.51 bitrate=N/A speed=17.3x    frame= 6663 fps=417 q=-0.0 size=N/A time=00:04:37.90 bitrate=N/A speed=17.4x    frame= 6895 fps=418 q=-0.0 size=N/A time=00:04:47.57 bitrate=N/A speed=17.4x    frame= 7130 fps=419 q=-0.0 size=N/A time=00:04:57.38 bitrate=N/A speed=17.5x    frame= 7355 fps=420 q=-0.0 size=N/A time=00:05:06.76 bitrate=N/A speed=17.5x    frame= 7642 fps=423 q=-0.0 size=N/A time=00:05:18.73 bitrate=N/A speed=17.7x    frame= 7886 fps=425 q=-0.0 size=N/A time=00:05:28.91 bitrate=N/A speed=17.7x    frame= 8116 fps=425 q=-0.0 size=N/A time=00:05:38.50 bitrate=N/A speed=17.7x    frame= 8367 fps=427 q=-0.0 size=N/A time=00:05:48.97 bitrate=N/A speed=17.8x    frame= 8638 fps=430 q=-0.0 size=N/A time=00:06:00.27 bitrate=N/A speed=17.9x    frame= 8921 fps=432 q=-0.0 size=N/A time=00:06:12.08 bitrate=N/A speed=  18x    frame= 9198 fps=435 q=-0.0 size=N/A time=00:06:23.63 bitrate=N/A speed=18.2x    frame= 9439 fps=436 q=-0.0 size=N/A time=00:06:33.68 bitrate=N/A speed=18.2x    frame= 9692 fps=437 q=-0.0 size=N/A time=00:06:44.23 bitrate=N/A speed=18.2x    frame= 9967 fps=439 q=-0.0 size=N/A time=00:06:55.70 bitrate=N/A speed=18.3x    frame=10217 fps=440 q=-0.0 size=N/A time=00:07:06.13 bitrate=N/A speed=18.3x    frame=10433 fps=440 q=-0.0 size=N/A time=00:07:15.14 bitrate=N/A speed=18.3x    frame=10687 fps=441 q=-0.0 size=N/A time=00:07:25.73 bitrate=N/A speed=18.4x    frame=10938 fps=442 q=-0.0 size=N/A time=00:07:36.20 bitrate=N/A speed=18.4x    frame=11205 fps=443 q=-0.0 size=N/A time=00:07:47.34 bitrate=N/A speed=18.5x    frame=11469 fps=445 q=-0.0 size=N/A time=00:07:58.35 bitrate=N/A speed=18.5x    frame=11690 fps=444 q=-0.0 size=N/A time=00:08:07.57 bitrate=N/A speed=18.5x    frame=11925 fps=445 q=-0.0 size=N/A time=00:08:17.37 bitrate=N/A speed=18.5x    frame=12180 fps=445 q=-0.0 size=N/A time=00:08:28.00 bitrate=N/A speed=18.6x    frame=12426 fps=446 q=-0.0 size=N/A time=00:08:38.26 bitrate=N/A speed=18.6x    frame=12711 fps=448 q=-0.0 size=N/A time=00:08:50.15 bitrate=N/A speed=18.7x    frame=12976 fps=449 q=-0.0 size=N/A time=00:09:01.20 bitrate=N/A speed=18.7x    frame=13184 fps=448 q=-0.0 size=N/A time=00:09:09.88 bitrate=N/A speed=18.7x    frame=13441 fps=449 q=-0.0 size=N/A time=00:09:20.60 bitrate=N/A speed=18.7x    frame=13695 fps=450 q=-0.0 size=N/A time=00:09:31.19 bitrate=N/A speed=18.8x    frame=13954 fps=451 q=-0.0 size=N/A time=00:09:41.99 bitrate=N/A speed=18.8x    frame=14230 fps=452 q=-0.0 size=N/A time=00:09:53.50 bitrate=N/A speed=18.9x    frame=14456 fps=452 q=-0.0 size=N/A time=00:10:02.93 bitrate=N/A speed=18.8x    frame=14661 fps=451 q=-0.0 size=N/A time=00:10:11.48 bitrate=N/A speed=18.8x    frame=14883 fps=451 q=-0.0 size=N/A time=00:10:20.74 bitrate=N/A speed=18.8x    frame=15073 fps=450 q=-0.0 size=N/A time=00:10:28.66 bitrate=N/A speed=18.7x    frame=15274 fps=449 q=-0.0 size=N/A time=00:10:37.05 bitrate=N/A speed=18.7x    frame=15438 fps=447 q=-0.0 size=N/A time=00:10:43.89 bitrate=N/A speed=18.6x    frame=15639 fps=446 q=-0.0 size=N/A time=00:10:52.27 bitrate=N/A speed=18.6x    frame=15824 fps=445 q=-0.0 size=N/A time=00:10:59.99 bitrate=N/A speed=18.5x    frame=16034 fps=444 q=-0.0 size=N/A time=00:11:08.75 bitrate=N/A speed=18.5x    frame=16292 fps=445 q=-0.0 size=N/A time=00:11:19.51 bitrate=N/A speed=18.5x    frame=16555 fps=446 q=-0.0 size=N/A time=00:11:30.48 bitrate=N/A speed=18.6x    frame=16814 fps=446 q=-0.0 size=N/A time=00:11:41.28 bitrate=N/A speed=18.6x    frame=17048 fps=447 q=-0.0 size=N/A time=00:11:51.04 bitrate=N/A speed=18.6x    frame=17230 fps=445 q=-0.0 size=N/A time=00:11:58.63 bitrate=N/A speed=18.6x    frame=17424 fps=444 q=-0.0 size=N/A time=00:12:06.72 bitrate=N/A speed=18.5x    frame=17686 fps=445 q=-0.0 size=N/A time=00:12:17.65 bitrate=N/A speed=18.6x    frame=17953 fps=446 q=-0.0 size=N/A time=00:12:28.78 bitrate=N/A speed=18.6x    frame=18191 fps=446 q=-0.0 size=N/A time=00:12:38.71 bitrate=N/A speed=18.6x    frame=18434 fps=447 q=-0.0 size=N/A time=00:12:48.85 bitrate=N/A speed=18.6x    frame=18689 fps=447 q=-0.0 size=N/A time=00:12:59.48 bitrate=N/A speed=18.7x    frame=18962 fps=448 q=-0.0 size=N/A time=00:13:10.87 bitrate=N/A speed=18.7x    frame=19248 fps=449 q=-0.0 size=N/A time=00:13:22.80 bitrate=N/A speed=18.7x    frame=19534 fps=451 q=-0.0 size=N/A time=00:13:34.73 bitrate=N/A speed=18.8x    frame=19772 fps=451 q=-0.0 size=N/A time=00:13:44.65 bitrate=N/A speed=18.8x    frame=20030 fps=451 q=-0.0 size=N/A time=00:13:55.41 bitrate=N/A speed=18.8x    frame=20287 fps=452 q=-0.0 size=N/A time=00:14:06.13 bitrate=N/A speed=18.8x    frame=20580 fps=453 q=-0.0 size=N/A time=00:14:18.35 bitrate=N/A speed=18.9x    frame=20842 fps=454 q=-0.0 size=N/A time=00:14:29.28 bitrate=N/A speed=18.9x    frame=21062 fps=454 q=-0.0 size=N/A time=00:14:38.46 bitrate=N/A speed=18.9x    frame=21345 fps=455 q=-0.0 size=N/A time=00:14:50.26 bitrate=N/A speed=  19x    frame=21548 fps=454 q=-0.0 size=N/A time=00:14:58.73 bitrate=N/A speed=18.9x    frame=21735 fps=453 q=-0.0 size=N/A time=00:15:06.53 bitrate=N/A speed=18.9x    frame=22026 fps=454 q=-0.0 size=N/A time=00:15:18.66 bitrate=N/A speed=18.9x    frame=22279 fps=455 q=-0.0 size=N/A time=00:15:29.21 bitrate=N/A speed=  19x    frame=22512 fps=454 q=-0.0 size=N/A time=00:15:38.93 bitrate=N/A speed=  19x    frame=22777 fps=455 q=-0.0 size=N/A time=00:15:49.99 bitrate=N/A speed=  19x    frame=23046 fps=456 q=-0.0 size=N/A time=00:16:01.21 bitrate=N/A speed=  19x    frame=23333 fps=457 q=-0.0 size=N/A time=00:16:13.18 bitrate=N/A speed=19.1x    frame=23563 fps=457 q=-0.0 size=N/A time=00:16:22.77 bitrate=N/A speed=  19x    frame=23802 fps=457 q=-0.0 size=N/A time=00:16:32.74 bitrate=N/A speed=19.1x    frame=24064 fps=457 q=-0.0 size=N/A time=00:16:43.66 bitrate=N/A speed=19.1x    frame=24323 fps=458 q=-0.0 size=N/A time=00:16:54.47 bitrate=N/A speed=19.1x    frame=24593 fps=458 q=-0.0 size=N/A time=00:17:05.73 bitrate=N/A speed=19.1x    frame=24850 fps=459 q=-0.0 size=N/A time=00:17:16.45 bitrate=N/A speed=19.1x    frame=25055 fps=458 q=-0.0 size=N/A time=00:17:25.00 bitrate=N/A speed=19.1x    frame=25278 fps=458 q=-0.0 size=N/A time=00:17:34.30 bitrate=N/A speed=19.1x    frame=25489 fps=457 q=-0.0 size=N/A time=00:17:43.10 bitrate=N/A speed=19.1x    frame=25709 fps=457 q=-0.0 size=N/A time=00:17:52.27 bitrate=N/A speed=19.1x    frame=25919 fps=457 q=-0.0 size=N/A time=00:18:01.03 bitrate=N/A speed=  19x    frame=26177 fps=457 q=-0.0 size=N/A time=00:18:11.79 bitrate=N/A speed=19.1x    frame=26444 fps=458 q=-0.0 size=N/A time=00:18:22.93 bitrate=N/A speed=19.1x    frame=26694 fps=458 q=-0.0 size=N/A time=00:18:33.36 bitrate=N/A speed=19.1x    frame=26971 fps=458 q=-0.0 size=N/A time=00:18:44.91 bitrate=N/A speed=19.1x    frame=27204 fps=458 q=-0.0 size=N/A time=00:18:54.63 bitrate=N/A speed=19.1x    frame=27496 fps=459 q=-0.0 size=N/A time=00:19:06.81 bitrate=N/A speed=19.2x    frame=27772 fps=460 q=-0.0 size=N/A time=00:19:18.32 bitrate=N/A speed=19.2x    frame=28006 fps=460 q=-0.0 size=N/A time=00:19:28.08 bitrate=N/A speed=19.2x    frame=28258 fps=460 q=-0.0 size=N/A time=00:19:38.59 bitrate=N/A speed=19.2x    frame=28474 fps=460 q=-0.0 size=N/A time=00:19:47.60 bitrate=N/A speed=19.2x    frame=28726 fps=460 q=-0.0 size=N/A time=00:19:58.11 bitrate=N/A speed=19.2x    frame=29006 fps=461 q=-0.0 size=N/A time=00:20:09.79 bitrate=N/A speed=19.2x    frame=29239 fps=461 q=-0.0 size=N/A time=00:20:19.50 bitrate=N/A speed=19.2x    frame=29461 fps=460 q=-0.0 size=N/A time=00:20:28.76 bitrate=N/A speed=19.2x    frame=29655 fps=460 q=-0.0 size=N/A time=00:20:36.86 bitrate=N/A speed=19.2x    frame=29857 fps=459 q=-0.0 size=N/A time=00:20:45.28 bitrate=N/A speed=19.2x    frame=30045 fps=458 q=-0.0 size=N/A time=00:20:53.12 bitrate=N/A speed=19.1x    frame=30225 fps=458 q=-0.0 size=N/A time=00:21:00.63 bitrate=N/A speed=19.1x    frame=30440 fps=457 q=-0.0 size=N/A time=00:21:09.60 bitrate=N/A speed=19.1x    frame=30617 fps=456 q=-0.0 size=N/A time=00:21:16.98 bitrate=N/A speed=  19x    frame=30839 fps=456 q=-0.0 size=N/A time=00:21:26.24 bitrate=N/A speed=  19x    frame=31092 fps=456 q=-0.0 size=N/A time=00:21:36.79 bitrate=N/A speed=  19x    frame=31333 fps=457 q=-0.0 size=N/A time=00:21:46.84 bitrate=N/A speed=  19x    frame=31575 fps=457 q=-0.0 size=N/A time=00:21:56.94 bitrate=N/A speed=  19x    frame=31777 fps=456 q=-0.0 size=N/A time=00:22:05.36 bitrate=N/A speed=  19x    frame=31971 fps=456 q=-0.0 size=N/A time=00:22:13.45 bitrate=N/A speed=  19x    frame=32220 fps=456 q=-0.0 size=N/A time=00:22:23.84 bitrate=N/A speed=  19x    frame=32411 fps=455 q=-0.0 size=N/A time=00:22:31.80 bitrate=N/A speed=  19x    frame=32558 fps=454 q=-0.0 size=N/A time=00:22:37.93 bitrate=N/A speed=18.9x    frame=32698 fps=453 q=-0.0 size=N/A time=00:22:43.77 bitrate=N/A speed=18.9x    frame=32907 fps=452 q=-0.0 size=N/A time=00:22:52.49 bitrate=N/A speed=18.9x    frame=33094 fps=452 q=-0.0 size=N/A time=00:23:00.29 bitrate=N/A speed=18.8x    frame=33256 fps=451 q=-0.0 size=N/A time=00:23:07.05 bitrate=N/A speed=18.8x    frame=33449 fps=450 q=-0.0 size=N/A time=00:23:15.10 bitrate=N/A speed=18.8x    frame=33676 fps=450 q=-0.0 size=N/A time=00:23:24.56 bitrate=N/A speed=18.8x    frame=33847 fps=449 q=-0.0 size=N/A time=00:23:31.70 bitrate=N/A speed=18.7x    frame=33995 fps=448 q=-0.0 size=N/A time=00:23:37.87 bitrate=N/A speed=18.7x    frame=34140 fps=447 q=-0.0 size=N/A time=00:23:43.92 bitrate=N/A speed=18.6x    frame=34297 fps=446 q=-0.0 size=N/A time=00:23:50.47 bitrate=N/A speed=18.6x    frame=34458 fps=445 q=-0.0 size=N/A time=00:23:57.18 bitrate=N/A speed=18.6x    frame=34691 fps=445 q=-0.0 size=N/A time=00:24:06.90 bitrate=N/A speed=18.6x    [Parsed_ssim_10 @ 000001048db73a80] SSIM Y:0.994209 (22.372653) U:0.992837 (21.448966) V:0.992993 (21.544774) All:0.993778 (22.060586)
[out#0/null @ 00000104ff6367c0] video:14934KiB audio:271820KiB subtitle:0KiB other streams:0KiB global headers:0KiB muxing overhead: unknown
frame=34755 fps=445 q=-0.0 Lsize=N/A time=00:24:09.57 bitrate=N/A speed=18.6x    
